<?xml version="1.0" encoding="UTF-8" standalone="no"?>
<!-- Created with Inkscape (http://www.inkscape.org/) -->

<svg
   xmlns:dc="http://purl.org/dc/elements/1.1/"
   xmlns:cc="http://creativecommons.org/ns#"
   xmlns:rdf="http://www.w3.org/1999/02/22-rdf-syntax-ns#"
   xmlns:svg="http://www.w3.org/2000/svg"
   xmlns="http://www.w3.org/2000/svg"
   xmlns:sodipodi="http://sodipodi.sourceforge.net/DTD/sodipodi-0.dtd"
   xmlns:inkscape="http://www.inkscape.org/namespaces/inkscape"
   width="138.80566mm"
   height="182.114mm"
   viewBox="0 0 138.80566 182.114"
   version="1.1"
   id="svg4507"
   inkscape:version="0.92.1 r"
   sodipodi:docname="masoterapia.svg">
  <defs
     id="defs4501" />
  <sodipodi:namedview
     id="base"
     pagecolor="#ffffff"
     bordercolor="#666666"
     borderopacity="1.0"
     inkscape:pageopacity="0.0"
     inkscape:pageshadow="2"
     inkscape:zoom="0.35"
     inkscape:cx="-209.04067"
     inkscape:cy="389.88835"
     inkscape:document-units="mm"
     inkscape:current-layer="layer1"
     showgrid="false"
     fit-margin-top="0"
     fit-margin-left="0"
     fit-margin-right="0"
     fit-margin-bottom="0"
     inkscape:window-width="1366"
     inkscape:window-height="710"
     inkscape:window-x="0"
     inkscape:window-y="25"
     inkscape:window-maximized="1" />
  <metadata
     id="metadata4504">
    <rdf:RDF>
      <cc:Work
         rdf:about="">
        <dc:format>image/svg+xml</dc:format>
        <dc:type
           rdf:resource="http://purl.org/dc/dcmitype/StillImage" />
        <dc:title></dc:title>
      </cc:Work>
    </rdf:RDF>
  </metadata>
  <g
     inkscape:label="Capa 1"
     inkscape:groupmode="layer"
     id="layer1"
     transform="translate(-38.61582,-69.877294)">
    <path
       style="fill:none;fill-rule:evenodd;stroke:#ffffff;stroke-width:5;stroke-linecap:butt;stroke-linejoin:miter;stroke-miterlimit:4;stroke-dasharray:none;stroke-opacity:1"
       d="m 77.951281,179.17471 c 0,0 -15.166016,-25.8081 -26.992457,-23.80051 -6.194247,1.05149 -11.542047,11.39521 -9.231896,16.43292 11.392723,24.84376 22.058464,43.16061 40.450336,64.46768 9.667781,11.20017 40.074466,17.15861 58.697266,10.25282 16.28328,-6.03828 31.93886,-18.36454 33.06962,-40.25981 2.06022,-39.89236 0.21689,-97.43431 0.21689,-97.43431 0,0 -5.64021,-8.52275 -10.03589,-8.55496 -5.79491,-0.0427 -13.6444,4.53055 -13.39437,11.08311 0.62162,16.29125 0.0767,41.85461 0.0767,41.85461 0,0 0.0594,-38.77454 0.0767,-61.339289 0.004,-5.03044 -5.40735,-10.36644 -10.40615,-10.92977 -5.61765,-0.63305 -14.1444,4.27966 -14.13483,9.37208 0.061,32.451639 0.0767,58.734499 0.0767,58.734499 0,0 0.22307,-46.97348 0,-68.259899 -0.0576,-5.49352 -7.20841,-8.6491 -12.11714,-8.40165 -5.14355,0.2594 -11.75549,5.4275 -11.7469,10.03595 0.0407,21.812209 0,67.302539 0,67.302539 0,0 0.0107,-37.14372 -0.21689,-55.836079 -0.0775,-6.36871 -7.816996,-9.84635 -13.164323,-9.30855 -5.581184,0.56139 -11.490233,5.28272 -11.530014,12.25728 -0.204568,35.866459 0.306715,82.331339 0.306715,82.331339 z"
       id="path4490"
       inkscape:connector-curvature="0"
       sodipodi:nodetypes="cassascascsascsascsasc"
       inkscape:export-xdpi="52.939999"
       inkscape:export-ydpi="52.939999" />
  </g>
</svg>
