<?xml version="1.0" encoding="UTF-8" standalone="no"?>
<!-- Created with Inkscape (http://www.inkscape.org/) -->

<svg
   xmlns:dc="http://purl.org/dc/elements/1.1/"
   xmlns:cc="http://creativecommons.org/ns#"
   xmlns:rdf="http://www.w3.org/1999/02/22-rdf-syntax-ns#"
   xmlns:svg="http://www.w3.org/2000/svg"
   xmlns="http://www.w3.org/2000/svg"
   xmlns:sodipodi="http://sodipodi.sourceforge.net/DTD/sodipodi-0.dtd"
   xmlns:inkscape="http://www.inkscape.org/namespaces/inkscape"
   width="170.21912mm"
   height="169.44113mm"
   viewBox="0 0 170.21912 169.44113"
   version="1.1"
   id="svg4866"
   inkscape:version="0.92.1 r"
   sodipodi:docname="ultrasonoterapia.svg"
   inkscape:export-filename="/home/dori/Documentos/kinesio/static/img/ultrasonoterapia.png"
   inkscape:export-xdpi="52.939999"
   inkscape:export-ydpi="52.939999">
  <defs
     id="defs4860" />
  <sodipodi:namedview
     id="base"
     pagecolor="#ffffff"
     bordercolor="#666666"
     borderopacity="1.0"
     inkscape:pageopacity="0.0"
     inkscape:pageshadow="2"
     inkscape:zoom="0.35"
     inkscape:cx="-876.16146"
     inkscape:cy="225.33691"
     inkscape:document-units="mm"
     inkscape:current-layer="layer1"
     showgrid="false"
     fit-margin-top="0"
     fit-margin-left="0"
     fit-margin-right="0"
     fit-margin-bottom="0"
     inkscape:window-width="1366"
     inkscape:window-height="710"
     inkscape:window-x="0"
     inkscape:window-y="25"
     inkscape:window-maximized="1" />
  <metadata
     id="metadata4863">
    <rdf:RDF>
      <cc:Work
         rdf:about="">
        <dc:format>image/svg+xml</dc:format>
        <dc:type
           rdf:resource="http://purl.org/dc/dcmitype/StillImage" />
        <dc:title />
      </cc:Work>
    </rdf:RDF>
  </metadata>
  <g
     inkscape:label="Capa 1"
     inkscape:groupmode="layer"
     id="layer1"
     transform="translate(-13.068802,-42.036395)">
    <g
       id="g5430"
       style="fill:none;stroke:#ffffff"
       transform="matrix(1,0,0,-1,-2.1798941e-6,253.51394)">
      <path
         sodipodi:nodetypes="cccsaaccsccaacccc"
         inkscape:connector-curvature="0"
         id="path4833"
         d="M 14.882307,209.64683 31.110433,193.57119 33.103539,169.192 c 0,0 19.781318,-19.2002 30.772469,-30.84271 6.16384,-6.52913 6.398776,-6.37474 7.994227,-10.46388 1.820307,-4.66546 1.831028,-9.97388 1.374441,-14.96101 -0.325395,-3.55409 -1.463968,-6.63479 -2.899263,-10.30689 3.308899,-6.037986 7.924584,-12.126463 7.924584,-12.126463 0,0 17.213274,2.196574 35.185603,19.009883 19.11146,17.87892 21.68684,36.78437 21.68684,36.78437 l -14.1457,8.91349 c 0,0 -6.59271,-4.04436 -10.30147,-4.85145 -2.88978,-0.62883 -6.0401,-0.75082 -8.87166,0.10271 -3.853394,1.16157 -10.139043,6.55601 -10.139043,6.55601 l -35.153732,35.09256 -25.420402,1.47252 z"
         style="fill:none;fill-rule:evenodd;stroke:#ffffff;stroke-width:5.15374279;stroke-linecap:butt;stroke-linejoin:miter;stroke-miterlimit:4;stroke-dasharray:none;stroke-opacity:1" />
      <path
         inkscape:connector-curvature="0"
         id="path4835"
         d="m 81.677564,142.54348 c -8.466865,8.46686 -8.466865,8.46686 -8.466865,8.46686"
         style="fill:none;fill-rule:evenodd;stroke:#ffffff;stroke-width:5.15374279;stroke-linecap:round;stroke-linejoin:miter;stroke-miterlimit:4;stroke-dasharray:none;stroke-opacity:1" />
      <path
         sodipodi:nodetypes="csc"
         inkscape:connector-curvature="0"
         id="path4839"
         d="m 115.72751,83.812524 c 0,0 7.81288,3.028781 15.40255,10.475279 7.12023,6.985897 10.25966,15.034417 10.25966,15.034417"
         style="fill:none;fill-rule:evenodd;stroke:#ffffff;stroke-width:5.15374279;stroke-linecap:round;stroke-linejoin:miter;stroke-miterlimit:4;stroke-dasharray:none;stroke-opacity:1" />
      <path
         sodipodi:nodetypes="csc"
         inkscape:connector-curvature="0"
         id="path4843"
         d="m 161.19244,104.99477 c 0,0 -3.731,-11.075536 -16.19746,-24.664327 C 134.57675,68.974311 119.96252,64.132964 119.96252,64.132964"
         style="fill:none;fill-rule:evenodd;stroke:#ffffff;stroke-width:5.15374279;stroke-linecap:round;stroke-linejoin:miter;stroke-miterlimit:4;stroke-dasharray:none;stroke-opacity:1" />
      <path
         sodipodi:nodetypes="csc"
         inkscape:connector-curvature="0"
         id="path4845"
         d="m 124.74813,44.622363 c 4.41749,1.104373 18.79095,5.317117 34.60369,20.246852 17.19926,16.238851 21.35123,35.339945 21.35123,35.339945"
         style="fill:none;fill-rule:evenodd;stroke:#ffffff;stroke-width:5.15374279;stroke-linecap:round;stroke-linejoin:miter;stroke-miterlimit:4;stroke-dasharray:none;stroke-opacity:1" />
    </g>
  </g>
</svg>
